<mxfile host="app.diagrams.net" modified="2024-07-30T15:52:14.624Z" agent="Mozilla/5.0 (X11; Linux x86_64) AppleWebKit/537.36 (KHTML, like Gecko) Chrome/127.0.0.0 Safari/537.36" version="24.5.2" etag="Mjm84ouHYKaAImNJc79H" type="github">
  <diagram name="Page-1" id="BT4NN3xoM98M69RFEwtj">
    <mxGraphModel>
      <root>
        <mxCell id="0" />
        <mxCell id="1" parent="0" />
        <mxCell id="2" value="Infrastructure" style="whiteSpace=wrap;strokeWidth=2;verticalAlign=top;" vertex="1" parent="1">
          <mxGeometry y="46" width="226" height="184" as="geometry" />
        </mxCell>
        <mxCell id="3" value="Server 1" style="whiteSpace=wrap;strokeWidth=2;" vertex="1" parent="2">
          <mxGeometry x="134" y="43" width="76" height="32" as="geometry" />
        </mxCell>
        <mxCell id="4" value="AWS" style="whiteSpace=wrap;strokeWidth=2;" vertex="1" parent="2">
          <mxGeometry x="33" y="84" width="51" height="32" as="geometry" />
        </mxCell>
        <mxCell id="5" value="Server 2" style="whiteSpace=wrap;strokeWidth=2;" vertex="1" parent="2">
          <mxGeometry x="134" y="125" width="76" height="32" as="geometry" />
        </mxCell>
        <mxCell id="6" value="" style="curved=1;dashed=1;dashPattern=2 3;startArrow=none;endArrow=block;exitX=0.8845012852702058;exitY=-1.4375;entryX=-0.001850328947368421;entryY=-0.9375;" edge="1" parent="2" source="4" target="3">
          <mxGeometry relative="1" as="geometry">
            <Array as="points">
              <mxPoint x="109" y="59" />
            </Array>
          </mxGeometry>
        </mxCell>
        <mxCell id="7" value="" style="curved=1;dashed=1;dashPattern=2 3;startArrow=none;endArrow=block;exitX=0.8845012852702058;exitY=-0.4375;entryX=-0.001850328947368421;entryY=-0.9375;" edge="1" parent="2" source="4" target="5">
          <mxGeometry relative="1" as="geometry">
            <Array as="points">
              <mxPoint x="109" y="141" />
            </Array>
          </mxGeometry>
        </mxCell>
        <mxCell id="8" value="Architecture" style="whiteSpace=wrap;strokeWidth=2;verticalAlign=top;" vertex="1" parent="1">
          <mxGeometry x="276" width="957" height="277" as="geometry" />
        </mxCell>
        <mxCell id="9" value="Database" style="shape=cylinder3;boundedLbl=1;backgroundOutline=1;size=10;strokeWidth=2;whiteSpace=wrap;" vertex="1" parent="8">
          <mxGeometry x="177" y="117" width="84" height="62" as="geometry" />
        </mxCell>
        <mxCell id="10" value="Tech Stack" style="whiteSpace=wrap;strokeWidth=2;" vertex="1" parent="8">
          <mxGeometry x="33" y="132" width="94" height="32" as="geometry" />
        </mxCell>
        <mxCell id="11" value="API" style="whiteSpace=wrap;strokeWidth=2;" vertex="1" parent="8">
          <mxGeometry x="424" y="129" width="41" height="32" as="geometry" />
        </mxCell>
        <mxCell id="12" value="Frontend" style="whiteSpace=wrap;strokeWidth=2;" vertex="1" parent="8">
          <mxGeometry x="630" y="155" width="79" height="32" as="geometry" />
        </mxCell>
        <mxCell id="13" value="User Interface" style="whiteSpace=wrap;strokeWidth=2;" vertex="1" parent="8">
          <mxGeometry x="824" y="92" width="116" height="32" as="geometry" />
        </mxCell>
        <mxCell id="14" value="" style="curved=1;startArrow=none;endArrow=block;exitX=-1.9334275265957446;exitY=0.4926263988018036;entryX=-3.2826450892857144;entryY=0.49619427034931796;" edge="1" parent="8" source="10" target="9">
          <mxGeometry relative="1" as="geometry">
            <Array as="points" />
          </mxGeometry>
        </mxCell>
        <mxCell id="15" value="" style="curved=1;startArrow=none;endArrow=block;exitX=-2.3143875135755843;exitY=-0.004258786478350239;entryX=-6.661536715101194;entryY=0.00043889880180358887;" edge="1" parent="8" source="9" target="11">
          <mxGeometry relative="1" as="geometry">
            <Array as="points">
              <mxPoint x="342" y="51" />
            </Array>
          </mxGeometry>
        </mxCell>
        <mxCell id="16" value="" style="curved=1;startArrow=none;endArrow=block;exitX=-5.741044207317073;exitY=0.24263249637545226;entryX=-3.357441507044842;entryY=-0.015186101198196411;" edge="1" parent="8" source="11" target="12">
          <mxGeometry relative="1" as="geometry">
            <Array as="points">
              <mxPoint x="547" y="103" />
            </Array>
          </mxGeometry>
        </mxCell>
        <mxCell id="17" value="" style="curved=1;startArrow=none;endArrow=block;exitX=-2.8342765460978803;exitY=-0.015186101198196411;entryX=-2.1247466460066806;entryY=0.00043889880180358887;" edge="1" parent="8" source="12" target="13">
          <mxGeometry relative="1" as="geometry">
            <Array as="points">
              <mxPoint x="767" y="44" />
            </Array>
          </mxGeometry>
        </mxCell>
        <mxCell id="18" value="Initiates" style="curved=1;startArrow=none;endArrow=block;exitX=-2.2354590582345377;exitY=0.00043889880180358887;entryX=-5.7441887043186375;entryY=0.00043889880180358887;" edge="1" parent="8" source="13" target="11">
          <mxGeometry relative="1" as="geometry">
            <Array as="points">
              <mxPoint x="767" y="64" />
              <mxPoint x="547" y="64" />
            </Array>
          </mxGeometry>
        </mxCell>
        <mxCell id="19" value="Fetch data" style="curved=1;startArrow=none;endArrow=block;exitX=-6.7360899390243905;exitY=0.6161880265527433;entryX=-2.2874813988095237;entryY=0.5823205428870343;" edge="1" parent="8" source="11" target="9">
          <mxGeometry relative="1" as="geometry">
            <Array as="points">
              <mxPoint x="342" y="164" />
            </Array>
          </mxGeometry>
        </mxCell>
        <mxCell id="20" value="Returns data" style="curved=1;startArrow=none;endArrow=block;exitX=-2.2874813988095237;exitY=0.12298042268588116;entryX=-6.7360899390243905;entryY=0.09062441946739686;" edge="1" parent="8" source="9" target="11">
          <mxGeometry relative="1" as="geometry">
            <Array as="points">
              <mxPoint x="342" y="80" />
            </Array>
          </mxGeometry>
        </mxCell>
        <mxCell id="21" value="Sends response" style="curved=1;startArrow=none;endArrow=block;exitX=-5.741044207317073;exitY=0.7752208506683118;entryX=-3.4892207278481013;entryY=0.6766945089791507;" edge="1" parent="8" source="11" target="12">
          <mxGeometry relative="1" as="geometry">
            <Array as="points">
              <mxPoint x="547" y="190" />
            </Array>
          </mxGeometry>
        </mxCell>
        <mxCell id="22" value="GET request" style="curved=1;startArrow=none;endArrow=block;exitX=-6.7360899390243905;exitY=0.8476862820546218;entryX=-2.2874813988095237;entryY=0.7846489291661133;" edge="1" parent="8" source="11" target="9">
          <mxGeometry relative="1" as="geometry">
            <Array as="points">
              <mxPoint x="342" y="201" />
            </Array>
          </mxGeometry>
        </mxCell>
        <mxCell id="23" value="Database query" style="curved=1;startArrow=none;endArrow=block;exitX=-2.2874813988095237;exitY=0.32530880896496045;entryX=-6.7360899390243905;entryY=0.3221226749692754;" edge="1" parent="8" source="9" target="11">
          <mxGeometry relative="1" as="geometry">
            <Array as="points">
              <mxPoint x="342" y="117" />
            </Array>
          </mxGeometry>
        </mxCell>
        <mxCell id="24" value="Views" style="curved=1;startArrow=none;endArrow=block;exitX=-2.132687230603448;exitY=1.0004388988018036;entryX=-2.4886273734177213;entryY=0.4848138988018036;" edge="1" parent="8" source="13" target="12">
          <mxGeometry relative="1" as="geometry">
            <Array as="points">
              <mxPoint x="767" y="171" />
            </Array>
          </mxGeometry>
        </mxCell>
        <mxCell id="25" value="Analyzes" style="curved=1;startArrow=none;endArrow=block;exitX=-1.9943590448829334;exitY=1.0004388988018036;entryX=-2.7253173020512214;entryY=0.9848138988018036;" edge="1" parent="8" source="13" target="12">
          <mxGeometry relative="1" as="geometry">
            <Array as="points">
              <mxPoint x="767" y="245" />
            </Array>
          </mxGeometry>
        </mxCell>
        <mxCell id="26" value="Queries data" style="curved=1;startArrow=none;endArrow=block;exitX=-3.4314554691194403;exitY=0.9848138988018036;entryX=-5.7441887043186375;entryY=1.0004388988018036;" edge="1" parent="8" source="12" target="11">
          <mxGeometry relative="1" as="geometry">
            <Array as="points">
              <mxPoint x="547" y="227" />
            </Array>
          </mxGeometry>
        </mxCell>
        <mxCell id="27" value="Logs" style="curved=1;startArrow=none;endArrow=block;exitX=-6.668395682267634;exitY=1.0004388988018036;entryX=-2.2874813988095237;entryY=0.9869773154451927;" edge="1" parent="8" source="11" target="9">
          <mxGeometry relative="1" as="geometry">
            <Array as="points">
              <mxPoint x="342" y="238" />
            </Array>
          </mxGeometry>
        </mxCell>
        <mxCell id="28" value="Monitoring" style="whiteSpace=wrap;strokeWidth=2;verticalAlign=top;" vertex="1" parent="1">
          <mxGeometry x="1283" y="122" width="90" height="32" as="geometry" />
        </mxCell>
        <mxCell id="29" value="Data Flow" style="whiteSpace=wrap;strokeWidth=2;verticalAlign=top;" vertex="1" parent="1">
          <mxGeometry x="1423" y="122" width="87" height="32" as="geometry" />
        </mxCell>
        <mxCell id="30" value="Workflows" style="whiteSpace=wrap;strokeWidth=2;verticalAlign=top;" vertex="1" parent="1">
          <mxGeometry x="1561" y="122" width="89" height="32" as="geometry" />
        </mxCell>
      </root>
    </mxGraphModel>
  </diagram>
</mxfile>
